<?xml version="1.0" encoding="UTF-8" standalone="no"?>
<svg width="136px" height="72px" viewBox="0 0 136 72" version="1.1" xmlns="http://www.w3.org/2000/svg" xmlns:xlink="http://www.w3.org/1999/xlink">
    <!-- Generator: sketchtool 42 (36781) - http://www.bohemiancoding.com/sketch -->
    <title>3562BFE2-F40A-45A4-877A-0222FC0AFD48</title>
    <desc>Created with sketchtool.</desc>
    <defs></defs>
    <g id="Symbols" stroke="none" stroke-width="1" fill="none" fill-rule="evenodd">
        <g id="logo_white" fill="#FFFFFF">
            <g id="Group">
                <g id="Group-4" transform="translate(0.000000, 48.000000)">
                    <path d="M36.0005161,16.9498182 L38.7592688,16.9498182 L38.7592688,19.9570909 C38.0895054,20.1563636 37.4036559,20.2567273 36.7185376,20.2567273 C35.1530753,20.2567273 33.9012903,19.7927273 33.0004731,18.8785455 C32.0967312,17.9650909 31.6382796,16.7156364 31.6382796,15.1665455 C31.6382796,13.6167273 32.1047742,12.3636364 33.023871,11.4414545 C33.9436989,10.5185455 35.2283871,10.0501818 36.8450323,10.0501818 C38.471914,10.0501818 40.1053763,10.512 41.7015484,11.4218182 L41.8646022,11.5149091 L41.8646022,7.38254545 L41.8046452,7.352 C40.3963871,6.64290909 38.7015054,6.28290909 36.7697204,6.28290909 C34.0204731,6.28290909 31.7172473,7.09672727 29.9243871,8.70254545 C28.127871,10.312 27.2168172,12.4909091 27.2168172,15.1789091 C27.2168172,17.8661818 28.0891183,20.0290909 29.8095914,21.6043636 C31.5256774,23.1767273 33.7228817,23.9738182 36.3390538,23.9738182 C38.9501075,23.9738182 41.1027097,23.3738182 42.7317849,22.1912727 L42.7771183,22.1578182 L42.7771183,13.4334545 L36.0005161,13.4334545 L36.0005161,16.9498182" id="Fill-1"></path>
                    <polyline id="Fill-2" points="49.8388817 6.58472727 45.7223226 6.58472727 45.7223226 23.7730909 56.1416774 23.7730909 56.1416774 20.1563636 49.8388817 20.1563636 49.8388817 6.58472727"></polyline>
                    <polyline id="Fill-3" points="68.2295914 0.945454545 64.2651183 0.945454545 61.983828 5.61963636 65.2814624 5.61963636 68.2295914 0.945454545"></polyline>
                    <polyline id="Fill-4" points="62.2170753 16.8247273 68.0906667 16.8247273 68.0906667 13.5338182 62.2170753 13.5338182 62.2170753 9.90036364 68.799914 9.90036364 68.799914 6.58472727 58.0741935 6.58472727 58.0741935 23.7730909 68.900086 23.7730909 68.900086 20.4574545 62.2170753 20.4574545 62.2170753 16.8247273"></polyline>
                    <path d="M82.2990108,13.7192727 C82.2990108,15.4385455 82.3516559,16.8792727 82.4547527,18.0196364 C81.9546237,16.7730909 81.2322151,15.3141818 80.3021505,13.6654545 L76.296,6.58545455 L71.8445591,6.58545455 L71.8445591,23.7730909 L75.9618495,23.7730909 L75.9618495,16.64 C75.9618495,15.1265455 75.8887312,13.7410909 75.7432258,12.5032727 C76.2104516,13.7010909 76.9189677,15.1090909 77.8585376,16.6938182 L81.9663226,23.7730909 L86.4155699,23.7730909 L86.4155699,6.58545455 L82.2990108,6.58545455 L82.2990108,13.7192727" id="Fill-5"></path>
                    <path d="M99.2193118,6.58472727 L94.1522151,6.58472727 L88.4307097,23.6298182 L88.3824516,23.7730909 L92.692043,23.7730909 L93.7288602,20.2989091 L99.5403011,20.2989091 L100.578581,23.7730909 L104.989075,23.7730909 L99.2449032,6.65963636 L99.2193118,6.58472727 Z M98.5393118,16.9578182 L94.7305806,16.9578182 C95.7535054,13.4829091 96.3932903,11.1709091 96.6404301,10.0618182 C96.9424086,11.3803636 97.5792688,13.6938182 98.5393118,16.9578182 L98.5393118,16.9578182 Z" id="Fill-6"></path>
                    <path d="M117.408215,13.7192727 C117.408215,15.4385455 117.46086,16.8792727 117.565419,18.0196364 C117.06529,16.7745455 116.342882,15.3141818 115.412086,13.6654545 L111.405935,6.58545455 L106.953763,6.58545455 L106.953763,23.7730909 L111.071785,23.7730909 L111.071785,16.64 C111.071785,15.1294545 110.997935,13.744 110.85243,12.5047273 C111.320387,13.7025455 112.030366,15.1090909 112.967742,16.6938182 L117.075527,23.7730909 L121.526237,23.7730909 L121.526237,6.58545455 L117.408215,6.58545455 L117.408215,13.7192727" id="Fill-7"></path>
                    <path d="M134.440387,15.7432727 C134.183011,15.4029091 133.821075,15.0683636 133.364817,14.7498182 C132.912946,14.4363636 132.509333,14.1890909 132.162753,14.0123636 C131.808129,13.832 131.286065,13.5898182 130.611914,13.2916364 C129.939957,12.9949091 129.388645,12.6821818 128.976258,12.3614545 C128.579226,12.0538182 128.386194,11.7149091 128.386194,11.3272727 C128.386194,10.9403636 128.542667,10.6298182 128.863656,10.3803636 C129.189032,10.1294545 129.673075,10.0007273 130.301892,10.0007273 C131.743785,10.0007273 133.155699,10.3934545 134.498882,11.1687273 L134.664129,11.2647273 L134.664129,7.38036364 L134.600516,7.35054545 C133.358968,6.776 131.811054,6.48363636 129.998452,6.48363636 C128.175613,6.48363636 126.693505,6.94690909 125.598194,7.85745455 C124.497763,8.77309091 123.93914,9.93090909 123.93914,11.3018182 C123.93914,12.6661818 124.28572,13.7425455 124.967914,14.4967273 C125.640602,15.2421818 126.542882,15.8778182 127.650624,16.3869091 C128.153677,16.6043636 128.670624,16.8407273 129.190495,17.0901818 C129.357204,17.1738182 129.564129,17.2778182 129.809075,17.4036364 C130.049634,17.5272727 130.230968,17.6341818 130.351613,17.7221818 C130.470796,17.8094545 130.623613,17.9454545 130.806409,18.1265455 C130.970925,18.2894545 131.052086,18.544 131.052086,18.8807273 C131.052086,19.3541818 130.876602,19.7265455 130.511742,20.0167273 C130.145419,20.3098182 129.673806,20.4574545 129.111527,20.4574545 C127.406409,20.4574545 125.77514,19.9054545 124.265247,18.8174545 L124.092688,18.6909091 L124.092688,22.8727273 L124.148989,22.9032727 C125.424172,23.6145455 127.059097,23.9745455 129.009892,23.9745455 C130.968731,23.9745455 132.543699,23.4872727 133.689462,22.5272727 C134.840344,21.5614545 135.423097,20.2836364 135.423097,18.7287273 C135.423097,17.6029091 135.093333,16.5978182 134.440387,15.7432727" id="Fill-8"></path>
                    <path d="M25.6082151,20.8123636 C25.3925161,20.8327273 18.0397419,20.8167273 16.8303656,20.816 C16.3806882,18.712 16.5766452,17.8807273 17.144043,15.4814545 C17.2025376,15.2349091 17.0884731,14.9767273 16.8654624,14.8516364 C16.6497634,14.7287273 16.3602151,14.7658182 16.1818065,14.9374545 C15.7043441,15.3970909 15.1384086,16.12 14.4818065,16.9578182 L14.4437849,17.0065455 C12.3123871,19.7345455 10.0574194,22.3970909 7.99329032,22.3970909 C7.44855914,22.3970909 6.94477419,22.2196364 6.45195699,21.8574545 C6.15217204,21.6356364 5.97376344,21.2858182 5.92258065,20.8145455 C6.34739785,20.5112727 6.81608602,20.1956364 7.31402151,19.8589091 C9.64722581,18.2821818 12.5529462,16.3192727 13.4449892,13.9621818 C13.5312688,13.7338182 13.4618065,13.4741818 13.2738925,13.3163636 C12.3577204,12.5687273 11.2163441,12.4196364 9.99965591,12.896 C7.41858065,13.9047273 5.12486022,17.4138182 4.79802151,19.8749091 C4.78193548,19.9876364 4.76950538,20.1069091 4.76365591,20.2392727 L4.72124731,20.2705455 C4.44997849,20.4778182 4.12752688,20.7556364 3.78460215,21.0516364 L3.74804301,21.0829091 C3.25010753,21.5141818 1.74898925,22.8123636 1.26129032,22.8443636 C1.2196129,22.7549091 1.11505376,22.3876364 1.32855914,21.2625455 C2.76460215,13.6603636 10.319914,5.93090909 13.7542796,3.37818182 C14.0087312,3.18981818 14.0613763,2.82836364 13.872,2.57527273 C13.6906667,2.33090909 13.3097204,2.27563636 13.0618495,2.45963636 C9.51122581,5.10181818 1.69415054,13.1229091 0.195956989,21.0501818 C-0.102365591,22.6232727 0.0460645161,23.4850909 0.677075269,23.8436364 C0.840129032,23.936 1.02292473,23.9825455 1.2196129,23.9825455 C2.15698925,23.9825455 3.35101075,22.9483636 4.50627957,21.9469091 C4.64666667,21.8269091 4.78412903,21.7069091 4.91501075,21.5949091 C5.07952688,22.0865455 5.36395699,22.4836364 5.76464516,22.7767273 C6.46,23.2909091 7.20434409,23.5512727 7.97427957,23.5512727 C9.04180645,23.5512727 10.1568602,23.0712727 11.3786667,22.0850909 C11.5914409,22.56 12.0184516,22.9694545 12.631914,23.28 C13.2651183,23.6 14.0869677,23.7905455 14.8283871,23.7905455 C15.5420215,23.7905455 16.1335484,23.6225455 16.5364301,23.3018182 C16.9517419,22.9716364 17.1425806,22.4996364 17.0848172,21.9636364 C17.5827527,21.9636364 24.7593118,21.9585455 24.7593118,21.9585455 C25.6140645,21.9585455 25.6140645,21.9585455 25.6820645,21.9578182 C26.2048602,21.9454545 26.3145376,21.6312727 26.3145376,21.3694545 C26.3145376,20.8778182 25.9182366,20.816 25.6082151,20.8123636 M10.4222796,13.9621818 C10.7483871,13.8341818 11.0627957,13.7701818 11.356,13.7701818 C11.6492043,13.7701818 11.9277849,13.8356364 12.1822366,13.9687273 C11.2309677,15.8232727 8.70619355,17.5294545 6.66180645,18.9112727 C6.46804301,19.0421818 6.27793548,19.1709091 6.09148387,19.2974545 C6.70055914,17.0916364 8.66086022,14.6509091 10.4222796,13.9621818 M15.3541075,17.712 C15.4191828,17.6283636 15.4827957,17.5454545 15.5471398,17.464 C15.3621505,18.64 15.3935914,19.5294545 15.6538925,20.8145455 C14.4715699,20.8116364 13.4464516,20.8043636 12.7671828,20.7949091 C13.7235699,19.7949091 14.587828,18.6916364 15.3541075,17.712 M15.8147527,22.4050909 C15.6253763,22.5563636 15.2663656,22.6421818 14.8305806,22.6421818 C14.2587957,22.6421818 13.632172,22.4981818 13.1539785,22.2581818 C13.0340645,22.1970909 12.8432258,22.088 12.6809032,21.9403636 C13.3046022,21.9541818 14.2873118,21.9614545 15.9156559,21.9636364 L15.9193118,21.9796364 C15.9858495,22.2465455 15.9010323,22.3389091 15.8147527,22.4050909" id="Fill-9"></path>
                </g>
                <g id="Group-3" transform="translate(49.000000, 0.000000)">
                    <polyline id="Fill-10" points="26.8375309 11.691358 23.2953086 10.5091358 21.7782716 12.9051852 26.8365432 14.4765432 26.8375309 11.691358"></polyline>
                    <path d="M14.6632099,24.0212346 L27.7185185,24.0296296 L27.7259259,0.381728395 L14.6632099,24.0212346 Z M26.6523457,23.0479012 L16.4004938,23.0409877 L26.6582716,4.47802469 L26.6523457,23.0479012 L26.6523457,23.0479012 Z" id="Fill-11"></path>
                    <path d="M29.5244444,22.4533333 C29.3471605,22.9728395 29.1461728,23.4809877 28.9279012,23.9792593 C30.2834568,23.3659259 32.0641975,22.9930864 34.0158025,22.9930864 C36.0207407,22.9930864 37.8459259,23.385679 39.2148148,24.0296296 C39.265679,16.2582716 35.2034568,10.5718519 28.8335802,7.23209877 C30.6928395,11.5980247 31.1604938,17.6918519 29.5244444,22.4533333" id="Fill-12"></path>
                    <path d="M39.5535802,25.4795062 L14.957037,25.4795062 C17.9150617,28.3787654 22.1950617,30.2222222 26.9708642,30.2938272 C24.9832099,32.4967901 21.942716,33.9841975 18.4780247,34.2098765 C18.3896296,34.211358 18.3017284,34.2153086 18.2128395,34.2153086 C11.2958025,34.2153086 5.68790123,29.7387654 5.68790123,24.217284 C5.68790123,18.6962963 11.2958025,14.2197531 18.2128395,14.2197531 C18.2819753,14.2197531 18.3501235,14.2237037 18.4192593,14.2241975 L19.9649383,11.462716 C19.217284,11.3822222 18.5614815,11.3590123 17.7861728,11.3590123 C8.2582716,11.3590123 0.533333333,17.6804938 0.533333333,25.48 C0.533333333,33.2780247 8.2582716,39.5995062 17.7861728,39.5995062 C25.9145679,39.5995062 32.7288889,34.9990123 34.5565432,28.8064198 C36.4582716,27.9822222 38.1550617,26.8503704 39.5535802,25.4795062" id="Fill-13"></path>
                </g>
            </g>
        </g>
    </g>
</svg>