<svg xmlns="http://www.w3.org/2000/svg" viewBox="0 0 800 600" width="800" height="600">

  <defs>
    <pattern id="hatch" width="14" height="14" patternUnits="userSpaceOnUse" patternTransform="rotate(115)">
      <rect width="14" height="14" fill="#0C0A09"></rect>
      <line x1="0" y1="0" x2="0" y2="14" stroke="#FFFFFF" stroke-opacity="0.05" stroke-width="1.5"></line>
    </pattern>
    <pattern id="dots" width="8" height="8" patternUnits="userSpaceOnUse">
      <circle cx="2" cy="2" r="1.1" fill="#FFFFFF" fill-opacity="0.14"></circle>
    </pattern>
  </defs>
<rect width="800" height="600" fill="url(#hatch)"></rect>
<rect x="560" y="0" width="240" height="200" fill="url(#dots)" opacity="0.5"></rect>
<rect x="0" y="440" width="220" height="160" fill="url(#dots)" opacity="0.35"></rect>

  
  <g stroke="#FFFFFF" stroke-opacity="0.16" stroke-width="2.5">
    <line x1="60" y1="520" x2="330" y2="380"></line>
    <line x1="30" y1="450" x2="250" y2="336"></line>
    <line x1="120" y1="570" x2="420" y2="415"></line>
  </g>
  <g transform="rotate(-24 400 300)">
    <g transform="translate(0,-10)">
  <path d="M415,285&#xA;           C470,180 555,115 690,92&#xA;           C655,128 640,150 608,162&#xA;           C655,162 682,176 700,194&#xA;           C652,208 622,210 592,214&#xA;           C630,234 652,256 662,282&#xA;           C614,276 584,266 558,254&#xA;           C580,294 590,326 588,362&#xA;           C548,336 522,310 502,284&#xA;           C512,334 510,376 498,418&#xA;           C468,378 448,336 438,304 Z" fill="#E9E6DF" stroke="#0C0A09" stroke-width="2"></path></g>
    <g transform="translate(800,-10) scale(-1,1)"><g transform="rotate(18 415 285)">
  <path d="M415,285&#xA;           C470,180 555,115 690,92&#xA;           C655,128 640,150 608,162&#xA;           C655,162 682,176 700,194&#xA;           C652,208 622,210 592,214&#xA;           C630,234 652,256 662,282&#xA;           C614,276 584,266 558,254&#xA;           C580,294 590,326 588,362&#xA;           C548,336 522,310 502,284&#xA;           C512,334 510,376 498,418&#xA;           C468,378 448,336 438,304 Z" fill="#E9E6DF" stroke="#0C0A09" stroke-width="2"></path></g></g>
    
  
  <path d="M400,150 C360,158 344,190 348,232 C330,300 300,380 250,452 C300,420 336,380 358,340&#xA;           C352,392 338,444 314,492 C356,452 384,404 398,356&#xA;           C408,404 404,456 388,504 C424,462 444,408 448,352 C462,300 460,220 452,190 C440,160 420,148 400,150 Z" fill="#DCD8CF" stroke="#0C0A09" stroke-width="2"></path>
  <circle cx="400" cy="188" r="27" fill="#15130F" stroke="#DCD8CF" stroke-width="2"></circle>
  <circle cx="390" cy="184" r="4.2" fill="#B5202E"></circle><circle cx="410" cy="184" r="4.2" fill="#B5202E"></circle>
  <path d="M400,218 C426,222 440,236 444,256 C448,290 440,340 428,400 C420,448 414,490 412,520 L396,520&#xA;      C398,480 398,440 398,410 C396,440 392,480 388,520 L372,520 C372,490 370,448 366,400&#xA;      C356,340 350,290 356,256 C360,236 374,222 400,218 Z" fill="#15130F" stroke="#2A2620" stroke-width="1.5"></path>
   <path d="M400,226 L400,430" stroke="#B5202E" stroke-width="3.5"></path>
  </g>

</svg>